<svg xmlns="http://www.w3.org/2000/svg" viewBox="0 0 940 528" width="940" height="528" font-family="system-ui, -apple-system, Segoe UI, Roboto, Helvetica, Arial, sans-serif">
<rect width="940" height="528" fill="#eef1f6"/>
<rect x="0" y="0" width="940" height="40" fill="#0f3866"/>
<rect x="16" y="11" width="18" height="18" rx="3" fill="#ffffff"/>
<text x="20" y="25" font-size="13" fill="#0f3866" font-weight="800">U</text>
<text x="42" y="25" font-size="12" fill="#ffffff" font-weight="800" letter-spacing="1.1">URBAN REDEVELOPMENT AUTHORITY</text>
<line x1="304" y1="10" x2="304" y2="30" stroke="#ffffff44" stroke-width="1"/>
<text x="318" y="25" font-size="12.5" fill="#c8d8ec" font-weight="400">Development Control System</text>
<rect x="790" y="10" width="74" height="20" rx="3" fill="#ffffff1f" stroke="#ffffff3d" stroke-width="1"/>
<text x="827" y="24" font-size="10" fill="#dce7f4" font-weight="700" text-anchor="middle">DAX · CX/CP</text>
<circle cx="906" cy="20" r="13" fill="#ffffff22" stroke="#ffffff44"/>
<text x="906" y="24" font-size="10.5" fill="#ffffff" font-weight="800" text-anchor="middle">PO</text>
<rect x="0" y="40" width="940" height="30" fill="#ffffff"/>
<line x1="0" y1="70" x2="940" y2="70" stroke="#ccd4e0" stroke-width="1"/>
<text x="16" y="60" font-size="12" fill="#175cc4" font-weight="400">Cases</text>
<text x="52" y="60" font-size="12" fill="#98a1ad" font-weight="400">›</text>
<text x="64" y="60" font-size="12" fill="#175cc4" font-weight="400">DA/████/25</text>
<text x="140" y="60" font-size="12" fill="#98a1ad" font-weight="400">›</text>
<text x="152" y="60" font-size="12" fill="#14202f" font-weight="700">Intake verification</text>
<text x="924" y="60" font-size="11" fill="#69737f" font-weight="400" text-anchor="end">ran automatically on registration · 2 min ago</text>
<rect x="16" y="86" width="188" height="62" rx="4" fill="#ffffff" stroke="#ccd4e0" stroke-width="1"/><text x="29" y="107" font-size="10" fill="#69737f" font-weight="700" letter-spacing="1.1">REGISTRATION</text><text x="29" y="131" font-size="18" fill="#186b4c" font-weight="800">Consistent</text><rect x="214" y="86" width="188" height="62" rx="4" fill="#ffffff" stroke="#ccd4e0" stroke-width="1"/><text x="227" y="107" font-size="10" fill="#69737f" font-weight="700" letter-spacing="1.1">FEE DUE</text><text x="227" y="131" font-size="18" fill="#14202f" font-weight="800">$ ██,███</text><rect x="412" y="86" width="188" height="62" rx="4" fill="#ffffff" stroke="#ccd4e0" stroke-width="1"/><text x="425" y="107" font-size="10" fill="#69737f" font-weight="700" letter-spacing="1.1">FEE PAID</text><text x="425" y="131" font-size="18" fill="#8a5600" font-weight="800">$ ██,███</text><text x="16" y="178" font-size="14" fill="#14202f" font-weight="700">Checks</text><rect x="78" y="167" width="58" height="17" rx="3" fill="#efe7fb" stroke="#5a2b964d" stroke-width="1"/><text x="85" y="179.5" font-size="9.5" fill="#5a2b96" font-weight="800" letter-spacing="0.6">◆ AGENT</text><rect x="16" y="192" width="588" height="26" rx="0" fill="#f7f9fc"/><line x1="16" y1="218" x2="604" y2="218" stroke="#ccd4e0" stroke-width="1"/><text x="29" y="209" font-size="10" fill="#69737f" font-weight="700" letter-spacing="1.1">CHECK</text><text x="514" y="209" font-size="10" fill="#69737f" font-weight="700" letter-spacing="1.1">RESULT</text><text x="29" y="236" font-size="13" fill="#14202f" font-weight="400">Development type</text><text x="29" y="252" font-size="11.5" fill="#175cc4" font-weight="400">registration pack p.2</text><rect x="520.2" y="228.5" width="70.80000000000001" height="18" rx="9" fill="#e3f1ea" stroke="#186b4c55" stroke-width="1"/><circle cx="531.2" cy="237.5" r="3" fill="#186b4c"/><text x="539.2" y="240" font-size="10.5" fill="#186b4c" font-weight="700" letter-spacing="0.5">MATCHED</text><line x1="16" y1="260" x2="604" y2="260" stroke="#e4e9f0" stroke-width="1"/><text x="29" y="278" font-size="13" fill="#14202f" font-weight="400">Chargeable area</text><text x="29" y="294" font-size="11.5" fill="#175cc4" font-weight="400">area schedule p.4</text><rect x="520.2" y="270.5" width="70.80000000000001" height="18" rx="9" fill="#e3f1ea" stroke="#186b4c55" stroke-width="1"/><circle cx="531.2" cy="279.5" r="3" fill="#186b4c"/><text x="539.2" y="282" font-size="10.5" fill="#186b4c" font-weight="700" letter-spacing="0.5">MATCHED</text><line x1="16" y1="302" x2="604" y2="302" stroke="#e4e9f0" stroke-width="1"/><text x="29" y="320" font-size="13" fill="#14202f" font-weight="400">Provision applied</text><text x="29" y="336" font-size="11.5" fill="#175cc4" font-weight="400">fee guideline §█.█</text><rect x="520.2" y="312.5" width="70.80000000000001" height="18" rx="9" fill="#efe7fb" stroke="#5a2b9655" stroke-width="1"/><circle cx="531.2" cy="321.5" r="3" fill="#5a2b96"/><text x="539.2" y="324" font-size="10.5" fill="#5a2b96" font-weight="700" letter-spacing="0.5">DERIVED</text><line x1="16" y1="344" x2="604" y2="344" stroke="#e4e9f0" stroke-width="1"/><text x="29" y="362" font-size="13" fill="#14202f" font-weight="400">Amount charged</text><text x="29" y="378" font-size="11.5" fill="#175cc4" font-weight="400">invoice ████</text><rect x="539.4" y="354.5" width="51.6" height="18" rx="9" fill="#e9eff8" stroke="#69737f55" stroke-width="1"/><circle cx="550.4" cy="363.5" r="3" fill="#69737f"/><text x="558.4" y="366" font-size="10.5" fill="#69737f" font-weight="700" letter-spacing="0.5">READ</text><line x1="16" y1="386" x2="604" y2="386" stroke="#e4e9f0" stroke-width="1"/><text x="29" y="404" font-size="13" fill="#14202f" font-weight="400">Amount settled</text><text x="29" y="420" font-size="11.5" fill="#175cc4" font-weight="400">receipt ████</text><rect x="507.4" y="396.5" width="83.6" height="18" rx="9" fill="#fbeed6" stroke="#8a560055" stroke-width="1"/><circle cx="518.4" cy="405.5" r="3" fill="#8a5600"/><text x="526.4" y="408" font-size="10.5" fill="#8a5600" font-weight="700" letter-spacing="0.5">SHORTFALL</text><line x1="16" y1="428" x2="604" y2="428" stroke="#e4e9f0" stroke-width="1"/><rect x="16" y="448" width="237.2" height="28" rx="3" fill="#0f3866" stroke="#0f3866" stroke-width="1"/><text x="134.6" y="466.5" font-size="12" fill="#ffffff" font-weight="700" text-anchor="middle">Accept and release to evaluation</text><rect x="261.2" y="448" width="138.2" height="28" rx="3" fill="#ffffff" stroke="#ccd4e0" stroke-width="1"/><text x="330.29999999999995" y="466.5" font-size="12" fill="#0f3866" font-weight="400" text-anchor="middle">Draft query to QP</text><rect x="407.4" y="448" width="158" height="28" rx="3" fill="#ffffff" stroke="#ccd4e0" stroke-width="1"/><text x="486.4" y="466.5" font-size="12" fill="#69737f" font-weight="400" text-anchor="middle">Override with reason</text><rect x="616" y="86" width="308" height="176" rx="4" fill="#ffffff" stroke="#ccd4e0" stroke-width="1"/><line x1="616" y1="119" x2="924" y2="119" stroke="#e4e9f0" stroke-width="1"/><text x="629" y="108" font-size="12.5" fill="#14202f" font-weight="700">How it got there</text><text x="629" y="142" font-size="12.5" fill="#14202f" font-weight="700">Fee derivation</text><text x="629" y="162" font-size="12.5" fill="#3b4759" font-weight="400">Type read as ████, area ██,███ m², rate</text><text x="629" y="179" font-size="12.5" fill="#3b4759" font-weight="400">from §█.█ of the guideline.</text><rect x="629" y="212" width="282" height="34" rx="3" fill="#fbeed6" stroke="#8a560044" stroke-width="1"/><text x="640" y="233" font-size="12" fill="#8a5600" font-weight="700">Difference arises at ████</text><rect x="616" y="274" width="308" height="174" rx="4" fill="#ffffff" stroke="#ccd4e0" stroke-width="1"/><line x1="616" y1="307" x2="924" y2="307" stroke="#e4e9f0" stroke-width="1"/><text x="629" y="296" font-size="12.5" fill="#14202f" font-weight="700">Sources the agent opened</text><text x="911" y="296" font-size="11" fill="#69737f" font-weight="400" text-anchor="end">3</text><text x="629" y="312" font-size="12.5" fill="#175cc4" font-weight="400" text-decoration="underline">Registration pack · 14 pp</text><rect x="629" y="320" width="190" height="7" rx="2" fill="#e4e9f0"/><text x="629" y="354" font-size="12.5" fill="#175cc4" font-weight="400" text-decoration="underline">Fee guideline · §█.█ cited</text><rect x="629" y="362" width="150" height="7" rx="2" fill="#e4e9f0"/><text x="629" y="396" font-size="12.5" fill="#175cc4" font-weight="400" text-decoration="underline">Invoice and receipt</text><rect x="629" y="404" width="168" height="7" rx="2" fill="#e4e9f0"/>
</svg>